<?xml version="1.0" encoding="utf-8"?>
<!-- Generator: Adobe Illustrator 24.1.0, SVG Export Plug-In . SVG Version: 6.00 Build 0)  -->
<svg version="1.1" xmlns="http://www.w3.org/2000/svg" xmlns:xlink="http://www.w3.org/1999/xlink" x="0px" y="0px"
	 viewBox="0 0 1920 1080" style="enable-background:new 0 0 1920 1080;" xml:space="preserve">
<style type="text/css">
	.st0{fill:#FFFFFF;}
</style>
<g id="图层_1">
	<image style="overflow:visible;" width="1920" height="1080" xlink:href="img/10.png" >
	</image>
</g>
<g id="图层_2">
	<image style="overflow:visible;" width="1654" height="592" xlink:href="img/9.png"  transform="matrix(1 0 0 1 0 357)">
	</image>
</g>
<g id="图层_3">
	<image style="overflow:visible;" width="300" height="579" xlink:href="img/8.png"  transform="matrix(1 0 0 1 568 210)">
	</image>
</g>
<g id="图层_4">
	<image style="overflow:visible;" width="1920" height="598" xlink:href="img/7.png"  transform="matrix(1 0 0 1 0 481)">
	</image>
</g>
<g id="图层_5">
	<image style="overflow:visible;" width="1800" height="582" xlink:href="img/6.png"  transform="matrix(1 0 0 1 1 499)">
	</image>
</g>
<g id="图层_6">
	<image style="overflow:visible;" width="1920" height="530" xlink:href="img/5.png"  transform="matrix(1 0 0 1 0 551)">
	</image>
</g>
<g id="图层_7">
	<image style="overflow:visible;" width="1920" height="1080" xlink:href="img/4.png" >
	</image>
</g>
<g id="图层_8">
	<image style="overflow:visible;" width="1475" height="875" xlink:href="img/3.png"  transform="matrix(1 0 0 1 290 50)">
	</image>
</g>
<g id="图层_9">
	<image style="overflow:visible;" width="1920" height="742" xlink:href="img/2.png"  transform="matrix(1 0 0 1 0 337)">
	</image>
</g>
<g id="图层_10">
	<image style="overflow:visible;" width="1919" height="810" xlink:href="img/1.png"  transform="matrix(1 0 0 1 1 270)">
	</image>
</g>
<g id="图层_11">
	<path class="st0" d="M0.5,0v1080h1920V0H0.5z M1840.5,1000H80.5V80h1760V1000z"/>
</g>
</svg>
